<svg width="1000" height="464" viewBox="0 0 1000 464" fill="none" xmlns="http://www.w3.org/2000/svg">
<rect y="39.0842" width="1000" height="385.832" fill="#BED1CE"/>
<rect width="13.5417" height="13.0281" transform="matrix(1 0 0 -1 0 437.944)" fill="#BED1CE"/>
<rect width="13.5417" height="13.0281" transform="matrix(1 0 0 -1 13.5415 450.972)" fill="#BED1CE"/>
<rect width="13.5417" height="13.0281" transform="matrix(1 0 0 -1 27.0833 437.944)" fill="#BED1CE"/>
<rect width="13.5417" height="13.0281" transform="matrix(1 0 0 -1 0 464)" fill="#BED1CE"/>
<rect x="1000" y="437.944" width="13.5417" height="13.0281" transform="rotate(180 1000 437.944)" fill="#BED1CE"/>
<rect x="986.458" y="450.972" width="13.5417" height="13.0281" transform="rotate(180 986.458 450.972)" fill="#BED1CE"/>
<rect x="972.917" y="437.944" width="13.5417" height="13.0281" transform="rotate(180 972.917 437.944)" fill="#BED1CE"/>
<rect x="1000" y="464" width="13.5417" height="13.0281" transform="rotate(180 1000 464)" fill="#BED1CE"/>
<rect y="26.0562" width="13.5417" height="13.0281" fill="#BED1CE"/>
<rect x="13.5415" y="13.0281" width="13.5417" height="13.0281" fill="#BED1CE"/>
<rect x="27.0833" y="26.0562" width="13.5417" height="13.0281" fill="#BED1CE"/>
<rect width="13.5417" height="13.0281" fill="#BED1CE"/>
<rect width="13.5417" height="13.0281" transform="matrix(-1 0 0 1 1000 26.0562)" fill="#BED1CE"/>
<rect width="13.5417" height="13.0281" transform="matrix(-1 0 0 1 986.458 13.0281)" fill="#BED1CE"/>
<rect width="13.5417" height="13.0281" transform="matrix(-1 0 0 1 972.917 26.0562)" fill="#BED1CE"/>
<rect width="13.5417" height="13.0281" transform="matrix(-1 0 0 1 1000 0)" fill="#BED1CE"/>
</svg>
