<svg width="1920" height="926" viewBox="0 0 1920 926" fill="none" xmlns="http://www.w3.org/2000/svg">
<rect y="78" width="1920" height="770" fill="#BED1CE"/>
<rect width="26" height="26" transform="matrix(1 0 0 -1 0 874)" fill="#BED1CE"/>
<rect width="26" height="26" transform="matrix(1 0 0 -1 26 900)" fill="#BED1CE"/>
<rect width="26" height="26" transform="matrix(1 0 0 -1 52 874)" fill="#BED1CE"/>
<rect width="26" height="26" transform="matrix(1 0 0 -1 0 926)" fill="#BED1CE"/>
<rect x="1920" y="874" width="26" height="26" transform="rotate(180 1920 874)" fill="#BED1CE"/>
<rect x="1894" y="900" width="26" height="26" transform="rotate(180 1894 900)" fill="#BED1CE"/>
<rect x="1868" y="874" width="26" height="26" transform="rotate(180 1868 874)" fill="#BED1CE"/>
<rect x="1920" y="926" width="26" height="26" transform="rotate(180 1920 926)" fill="#BED1CE"/>
<rect y="52" width="26" height="26" fill="#BED1CE"/>
<rect x="26" y="26" width="26" height="26" fill="#BED1CE"/>
<rect x="52" y="52" width="26" height="26" fill="#BED1CE"/>
<rect width="26" height="26" fill="#BED1CE"/>
<rect width="26" height="26" transform="matrix(-1 0 0 1 1920 52)" fill="#BED1CE"/>
<rect width="26" height="26" transform="matrix(-1 0 0 1 1894 26)" fill="#BED1CE"/>
<rect width="26" height="26" transform="matrix(-1 0 0 1 1868 52)" fill="#BED1CE"/>
<rect width="26" height="26" transform="matrix(-1 0 0 1 1920 0)" fill="#BED1CE"/>
</svg>
