<svg width="1000" height="601" viewBox="0 0 1000 601" fill="none" xmlns="http://www.w3.org/2000/svg">
<rect y="40.101" width="1000" height="520.798" fill="#FF6060"/>
<rect y="26.734" width="13.5417" height="13.367" fill="#FF6060"/>
<rect x="13.5415" y="13.3669" width="13.5417" height="13.367" fill="#FF6060"/>
<rect x="27.0835" y="26.734" width="13.5417" height="13.367" fill="#FF6060"/>
<rect width="13.5417" height="13.367" fill="#FF6060"/>
<rect x="1000" y="574.266" width="13.5417" height="13.367" transform="rotate(180 1000 574.266)" fill="#FF6060"/>
<rect x="986.458" y="587.633" width="13.5417" height="13.367" transform="rotate(180 986.458 587.633)" fill="#FF6060"/>
<rect x="972.917" y="574.266" width="13.5417" height="13.367" transform="rotate(180 972.917 574.266)" fill="#FF6060"/>
<rect x="1000" y="601" width="13.5417" height="13.367" transform="rotate(180 1000 601)" fill="#FF6060"/>
<rect width="13.5417" height="13.367" transform="matrix(-1 0 0 1 1000 26.734)" fill="#FF6060"/>
<rect width="13.5417" height="13.367" transform="matrix(-1 0 0 1 986.458 13.3669)" fill="#FF6060"/>
<rect width="13.5417" height="13.367" transform="matrix(-1 0 0 1 972.917 26.734)" fill="#FF6060"/>
<rect width="13.5417" height="13.367" transform="matrix(-1 0 0 1 1000 0)" fill="#FF6060"/>
<rect width="13.5417" height="13.367" transform="matrix(1 0 0 -1 0 574.266)" fill="#FF6060"/>
<rect width="13.5417" height="13.367" transform="matrix(1 0 0 -1 13.5415 587.633)" fill="#FF6060"/>
<rect width="13.5417" height="13.367" transform="matrix(1 0 0 -1 27.0835 574.266)" fill="#FF6060"/>
<rect width="13.5417" height="13.367" transform="matrix(1 0 0 -1 0 601)" fill="#FF6060"/>
</svg>
