<svg width="1920" height="1139" viewBox="0 0 1920 1139" fill="none" xmlns="http://www.w3.org/2000/svg">
<rect y="78" width="1920" height="983" fill="#7C93A7"/>
<rect y="52" width="26" height="26" fill="#7C93A7"/>
<rect x="26" y="26" width="26" height="26" fill="#7C93A7"/>
<rect x="52" y="52" width="26" height="26" fill="#7C93A7"/>
<rect width="26" height="26" fill="#7C93A7"/>
<rect width="26" height="26" transform="matrix(1 0 0 -1 0 1087)" fill="#7C93A7"/>
<rect width="26" height="26" transform="matrix(1 0 0 -1 26 1113)" fill="#7C93A7"/>
<rect width="26" height="26" transform="matrix(1 0 0 -1 52 1087)" fill="#7C93A7"/>
<rect width="26" height="26" transform="matrix(1 0 0 -1 0 1139)" fill="#7C93A7"/>
<rect x="1920" y="1087" width="26" height="26" transform="rotate(180 1920 1087)" fill="#7C93A7"/>
<rect x="1894" y="1113" width="26" height="26" transform="rotate(180 1894 1113)" fill="#7C93A7"/>
<rect x="1868" y="1087" width="26" height="26" transform="rotate(180 1868 1087)" fill="#7C93A7"/>
<rect x="1920" y="1139" width="26" height="26" transform="rotate(180 1920 1139)" fill="#7C93A7"/>
<rect width="26" height="26" transform="matrix(-1 0 0 1 1920 52)" fill="#7C93A7"/>
<rect width="26" height="26" transform="matrix(-1 0 0 1 1894 26)" fill="#7C93A7"/>
<rect width="26" height="26" transform="matrix(-1 0 0 1 1868 52)" fill="#7C93A7"/>
<rect width="26" height="26" transform="matrix(-1 0 0 1 1920 0)" fill="#7C93A7"/>
</svg>
