<svg width="121" height="120" viewBox="0 0 121 120" fill="none" xmlns="http://www.w3.org/2000/svg">
<g filter="url(#filter0_d_400_3)">
<ellipse cx="58.5" cy="58" rx="58.5" ry="58" fill="#7C93A7"/>
</g>
<path d="M49.7647 82C49.7647 82 49.7647 81.8118 49.7647 81.4353V80.1176V78.8078V78.2353H50.3294H51.6471H52.9569H53.5294C53.5294 78.2353 53.5294 78.4261 53.5294 78.8078V78.2353C53.5294 78.2353 53.5294 78.0471 53.5294 77.6706V76.3529V75.0431V74.4706H54.0941H55.4118H56.7216H57.2941C57.2941 74.4706 57.2941 74.6614 57.2941 75.0431V76.3529V77.6706V78.2353C57.2941 78.2353 57.1033 78.2353 56.7216 78.2353H57.2941C57.2941 78.2353 57.2941 78.4261 57.2941 78.8078V78.2353H57.8588H59.1765H60.4863H61.0588C61.0588 78.2353 61.0588 78.4261 61.0588 78.8078V78.2353H61.6235H62.9412H64.251H64.8235C64.8235 78.2353 64.8235 78.4261 64.8235 78.8078V78.2353H65.3882H66.7059H68.0157H68.5882C68.5882 78.2353 68.5882 78.4261 68.5882 78.8078V80.1176V81.4353V82C68.5882 82 68.3974 82 68.0157 82H66.7059H65.3882H64.8235C64.8235 82 64.8235 81.8118 64.8235 81.4353V82C64.8235 82 64.6327 82 64.251 82H62.9412H61.6235H61.0588C61.0588 82 61.0588 81.8118 61.0588 81.4353V82C61.0588 82 60.868 82 60.4863 82H59.1765H57.8588H57.2941C57.2941 82 57.2941 81.8118 57.2941 81.4353V82C57.2941 82 57.1033 82 56.7216 82H55.4118H54.0941H53.5294C53.5294 82 53.5294 81.8118 53.5294 81.4353V82C53.5294 82 53.3386 82 52.9569 82H51.6471H50.3294H49.7647ZM55.4118 74.4706C55.4118 74.4706 55.4118 74.2824 55.4118 73.9059V72.5882V71.2784V70.7059H55.9765H57.2941H58.6039H59.1765C59.1765 70.7059 59.1765 70.8967 59.1765 71.2784V72.5882V73.9059V74.4706C59.1765 74.4706 58.9856 74.4706 58.6039 74.4706H57.2941H55.9765H55.4118ZM57.2941 70.7059C57.2941 70.7059 57.2941 70.5176 57.2941 70.1412V68.8235V67.5137V66.9412H57.8588H59.1765H60.4863H61.0588C61.0588 66.9412 61.0588 67.132 61.0588 67.5137V68.8235V70.1412V70.7059C61.0588 70.7059 60.868 70.7059 60.4863 70.7059H59.1765H57.8588H57.2941ZM59.1765 66.9412C59.1765 66.9412 59.1765 66.7529 59.1765 66.3765V65.0588V63.749V63.1765H59.7412H61.0588H62.3686H62.9412C62.9412 63.1765 62.9412 63.3673 62.9412 63.749V65.0588V66.3765V66.9412C62.9412 66.9412 62.7503 66.9412 62.3686 66.9412H61.0588H59.7412H59.1765ZM61.0588 63.1765C61.0588 63.1765 61.0588 62.9882 61.0588 62.6118V61.2941V59.9843V59.4118H61.6235H62.9412H64.251H64.8235C64.8235 59.4118 64.8235 59.6026 64.8235 59.9843V61.2941V62.6118V63.1765C64.8235 63.1765 64.6327 63.1765 64.251 63.1765H62.9412H61.6235H61.0588ZM62.9412 59.4118C62.9412 59.4118 62.9412 59.2235 62.9412 58.8471V57.5294V56.2196V55.6471H63.5059H64.8235H66.1333H66.7059C66.7059 55.6471 66.7059 55.8379 66.7059 56.2196V57.5294V58.8471V59.4118C66.7059 59.4118 66.515 59.4118 66.1333 59.4118H64.8235H63.5059H62.9412ZM49.7647 55.6471C49.7647 55.6471 49.7647 55.4588 49.7647 55.0824V53.7647V52.4549V51.8824C49.7647 51.8824 49.7647 51.6941 49.7647 51.3176V50V48.6902V48.1176C49.7647 48.1176 49.7647 47.9294 49.7647 47.5529V46.2353V44.9255V44.3529H50.3294H51.6471H52.9569H53.5294C53.5294 44.3529 53.5294 44.5438 53.5294 44.9255V46.2353V47.5529V48.1176C53.5294 48.1176 53.3386 48.1176 52.9569 48.1176H53.5294C53.5294 48.1176 53.5294 48.3085 53.5294 48.6902V50V51.3176V51.8824C53.5294 51.8824 53.3386 51.8824 52.9569 51.8824H53.5294C53.5294 51.8824 53.5294 52.0732 53.5294 52.4549V53.7647V55.0824V55.6471C53.5294 55.6471 53.3386 55.6471 52.9569 55.6471H51.6471H50.3294H49.7647ZM64.8235 55.6471C64.8235 55.6471 64.8235 55.4588 64.8235 55.0824V53.7647V52.4549V51.8824C64.8235 51.8824 64.8235 51.6941 64.8235 51.3176V50V48.6902V48.1176C64.8235 48.1176 64.8235 47.9294 64.8235 47.5529V46.2353V44.9255V44.3529H65.3882H66.7059H68.0157H68.5882C68.5882 44.3529 68.5882 44.5438 68.5882 44.9255V46.2353V47.5529V48.1176C68.5882 48.1176 68.3974 48.1176 68.0157 48.1176H68.5882C68.5882 48.1176 68.5882 48.3085 68.5882 48.6902V50V51.3176V51.8824C68.5882 51.8824 68.3974 51.8824 68.0157 51.8824H68.5882C68.5882 51.8824 68.5882 52.0732 68.5882 52.4549V53.7647V55.0824V55.6471C68.5882 55.6471 68.3974 55.6471 68.0157 55.6471H66.7059H65.3882H64.8235ZM53.5294 44.3529C53.5294 44.3529 53.5294 44.1647 53.5294 43.7882V42.4706V41.1608V40.5882H54.0941H55.4118H56.7216H57.2941C57.2941 40.5882 57.2941 40.7791 57.2941 41.1608V40.5882H57.8588H59.1765H60.4863H61.0588C61.0588 40.5882 61.0588 40.7791 61.0588 41.1608V40.5882H61.6235H62.9412H64.251H64.8235C64.8235 40.5882 64.8235 40.7791 64.8235 41.1608V42.4706V43.7882V44.3529C64.8235 44.3529 64.6327 44.3529 64.251 44.3529H62.9412H61.6235H61.0588C61.0588 44.3529 61.0588 44.1647 61.0588 43.7882V44.3529C61.0588 44.3529 60.868 44.3529 60.4863 44.3529H59.1765H57.8588H57.2941C57.2941 44.3529 57.2941 44.1647 57.2941 43.7882V44.3529C57.2941 44.3529 57.1033 44.3529 56.7216 44.3529H55.4118H54.0941H53.5294Z" fill="black"/>
<defs>
<filter id="filter0_d_400_3" x="0" y="0" width="121" height="120" filterUnits="userSpaceOnUse" color-interpolation-filters="sRGB">
<feFlood flood-opacity="0" result="BackgroundImageFix"/>
<feColorMatrix in="SourceAlpha" type="matrix" values="0 0 0 0 0 0 0 0 0 0 0 0 0 0 0 0 0 0 127 0" result="hardAlpha"/>
<feOffset dx="4" dy="4"/>
<feComposite in2="hardAlpha" operator="out"/>
<feColorMatrix type="matrix" values="0 0 0 0 0 0 0 0 0 0 0 0 0 0 0 0 0 0 1 0"/>
<feBlend mode="normal" in2="BackgroundImageFix" result="effect1_dropShadow_400_3"/>
<feBlend mode="normal" in="SourceGraphic" in2="effect1_dropShadow_400_3" result="shape"/>
</filter>
</defs>
</svg>
