<svg width="120" height="120" viewBox="0 0 120 120" fill="none" xmlns="http://www.w3.org/2000/svg">
<g filter="url(#filter0_d_400_4)">
<circle cx="58" cy="58" r="58" fill="#FF6060"/>
</g>
<path d="M52.5294 82C52.5294 82 52.5294 81.8118 52.5294 81.4353V80.1176V78.8078V78.2353H53.0941H54.4118H55.7216H56.2941C56.2941 78.2353 56.2941 78.4261 56.2941 78.8078V78.2353H56.8588H58.1765H59.4863H60.0588C60.0588 78.2353 60.0588 78.4261 60.0588 78.8078V78.2353H60.6235H61.9412H63.251H63.8235C63.8235 78.2353 63.8235 78.4261 63.8235 78.8078V80.1176V81.4353V82C63.8235 82 63.6327 82 63.251 82H61.9412H60.6235H60.0588C60.0588 82 60.0588 81.8118 60.0588 81.4353V82C60.0588 82 59.868 82 59.4863 82H58.1765H56.8588H56.2941C56.2941 82 56.2941 81.8118 56.2941 81.4353V82C56.2941 82 56.1033 82 55.7216 82H54.4118H53.0941H52.5294ZM48.7647 78.2353C48.7647 78.2353 48.7647 78.0471 48.7647 77.6706V76.3529V75.0431V74.4706C48.7647 74.4706 48.7647 74.2824 48.7647 73.9059V72.5882V71.2784V70.7059H49.3294H50.6471H51.9569H52.5294C52.5294 70.7059 52.5294 70.8967 52.5294 71.2784V72.5882V73.9059V74.4706C52.5294 74.4706 52.3386 74.4706 51.9569 74.4706H52.5294C52.5294 74.4706 52.5294 74.6614 52.5294 75.0431V76.3529V77.6706V78.2353C52.5294 78.2353 52.3386 78.2353 51.9569 78.2353H50.6471H49.3294H48.7647ZM63.8235 78.2353C63.8235 78.2353 63.8235 78.0471 63.8235 77.6706V76.3529V75.0431V74.4706C63.8235 74.4706 63.8235 74.2824 63.8235 73.9059V72.5882V71.2784V70.7059C63.8235 70.7059 63.8235 70.5176 63.8235 70.1412V68.8235V67.5137V66.9412C63.8235 66.9412 63.8235 66.7529 63.8235 66.3765V65.0588V63.749V63.1765H64.3882H65.7059H67.0157H67.5882C67.5882 63.1765 67.5882 63.3673 67.5882 63.749V65.0588V66.3765V66.9412C67.5882 66.9412 67.3974 66.9412 67.0157 66.9412H67.5882C67.5882 66.9412 67.5882 67.132 67.5882 67.5137V68.8235V70.1412V70.7059C67.5882 70.7059 67.3974 70.7059 67.0157 70.7059H67.5882C67.5882 70.7059 67.5882 70.8967 67.5882 71.2784V72.5882V73.9059V74.4706C67.5882 74.4706 67.3974 74.4706 67.0157 74.4706H67.5882C67.5882 74.4706 67.5882 74.6614 67.5882 75.0431V76.3529V77.6706V78.2353C67.5882 78.2353 67.3974 78.2353 67.0157 78.2353H65.7059H64.3882H63.8235ZM52.5294 63.1765C52.5294 63.1765 52.5294 62.9882 52.5294 62.6118V61.2941V59.9843V59.4118H53.0941H54.4118H55.7216H56.2941C56.2941 59.4118 56.2941 59.6026 56.2941 59.9843V59.4118H56.8588H58.1765H59.4863H60.0588C60.0588 59.4118 60.0588 59.6026 60.0588 59.9843V59.4118H60.6235H61.9412H63.251H63.8235C63.8235 59.4118 63.8235 59.6026 63.8235 59.9843V61.2941V62.6118V63.1765C63.8235 63.1765 63.6327 63.1765 63.251 63.1765H61.9412H60.6235H60.0588C60.0588 63.1765 60.0588 62.9882 60.0588 62.6118V63.1765C60.0588 63.1765 59.868 63.1765 59.4863 63.1765H58.1765H56.8588H56.2941C56.2941 63.1765 56.2941 62.9882 56.2941 62.6118V63.1765C56.2941 63.1765 56.1033 63.1765 55.7216 63.1765H54.4118H53.0941H52.5294ZM63.8235 59.4118C63.8235 59.4118 63.8235 59.2235 63.8235 58.8471V57.5294V56.2196V55.6471C63.8235 55.6471 63.8235 55.4588 63.8235 55.0824V53.7647V52.4549V51.8824C63.8235 51.8824 63.8235 51.6941 63.8235 51.3176V50V48.6902V48.1176C63.8235 48.1176 63.8235 47.9294 63.8235 47.5529V46.2353V44.9255V44.3529H64.3882H65.7059H67.0157H67.5882C67.5882 44.3529 67.5882 44.5438 67.5882 44.9255V46.2353V47.5529V48.1176C67.5882 48.1176 67.3974 48.1176 67.0157 48.1176H67.5882C67.5882 48.1176 67.5882 48.3085 67.5882 48.6902V50V51.3176V51.8824C67.5882 51.8824 67.3974 51.8824 67.0157 51.8824H67.5882C67.5882 51.8824 67.5882 52.0732 67.5882 52.4549V53.7647V55.0824V55.6471C67.5882 55.6471 67.3974 55.6471 67.0157 55.6471H67.5882C67.5882 55.6471 67.5882 55.8379 67.5882 56.2196V57.5294V58.8471V59.4118C67.5882 59.4118 67.3974 59.4118 67.0157 59.4118H65.7059H64.3882H63.8235ZM48.7647 51.8824C48.7647 51.8824 48.7647 51.6941 48.7647 51.3176V50V48.6902V48.1176C48.7647 48.1176 48.7647 47.9294 48.7647 47.5529V46.2353V44.9255V44.3529H49.3294H50.6471H51.9569H52.5294C52.5294 44.3529 52.5294 44.5438 52.5294 44.9255V46.2353V47.5529V48.1176C52.5294 48.1176 52.3386 48.1176 51.9569 48.1176H52.5294C52.5294 48.1176 52.5294 48.3085 52.5294 48.6902V50V51.3176V51.8824C52.5294 51.8824 52.3386 51.8824 51.9569 51.8824H50.6471H49.3294H48.7647ZM52.5294 44.3529C52.5294 44.3529 52.5294 44.1647 52.5294 43.7882V42.4706V41.1608V40.5882H53.0941H54.4118H55.7216H56.2941C56.2941 40.5882 56.2941 40.7791 56.2941 41.1608V40.5882H56.8588H58.1765H59.4863H60.0588C60.0588 40.5882 60.0588 40.7791 60.0588 41.1608V40.5882H60.6235H61.9412H63.251H63.8235C63.8235 40.5882 63.8235 40.7791 63.8235 41.1608V42.4706V43.7882V44.3529C63.8235 44.3529 63.6327 44.3529 63.251 44.3529H61.9412H60.6235H60.0588C60.0588 44.3529 60.0588 44.1647 60.0588 43.7882V44.3529C60.0588 44.3529 59.868 44.3529 59.4863 44.3529H58.1765H56.8588H56.2941C56.2941 44.3529 56.2941 44.1647 56.2941 43.7882V44.3529C56.2941 44.3529 56.1033 44.3529 55.7216 44.3529H54.4118H53.0941H52.5294Z" fill="black"/>
<defs>
<filter id="filter0_d_400_4" x="0" y="0" width="120" height="120" filterUnits="userSpaceOnUse" color-interpolation-filters="sRGB">
<feFlood flood-opacity="0" result="BackgroundImageFix"/>
<feColorMatrix in="SourceAlpha" type="matrix" values="0 0 0 0 0 0 0 0 0 0 0 0 0 0 0 0 0 0 127 0" result="hardAlpha"/>
<feOffset dx="4" dy="4"/>
<feComposite in2="hardAlpha" operator="out"/>
<feColorMatrix type="matrix" values="0 0 0 0 0 0 0 0 0 0 0 0 0 0 0 0 0 0 1 0"/>
<feBlend mode="normal" in2="BackgroundImageFix" result="effect1_dropShadow_400_4"/>
<feBlend mode="normal" in="SourceGraphic" in2="effect1_dropShadow_400_4" result="shape"/>
</filter>
</defs>
</svg>
