<svg width="121" height="120" viewBox="0 0 121 120" fill="none" xmlns="http://www.w3.org/2000/svg">
<g filter="url(#filter0_d_377_9)">
<ellipse cx="58.5" cy="58" rx="58.5" ry="58" fill="#BED1CE"/>
</g>
<path d="M49.7647 82C49.7647 82 49.7647 81.8118 49.7647 81.4353V80.1176V78.8078V78.2353H50.3294H51.6471H52.9569H53.5294C53.5294 78.2353 53.5294 78.4261 53.5294 78.8078V78.2353H54.0941H55.4118H56.7216H57.2941C57.2941 78.2353 57.2941 78.4261 57.2941 78.8078V78.2353C57.2941 78.2353 57.2941 78.0471 57.2941 77.6706V76.3529V75.0431V74.4706C57.2941 74.4706 57.2941 74.2824 57.2941 73.9059V72.5882V71.2784V70.7059C57.2941 70.7059 57.2941 70.5176 57.2941 70.1412V68.8235V67.5137V66.9412C57.2941 66.9412 57.2941 66.7529 57.2941 66.3765V65.0588V63.749V63.1765C57.2941 63.1765 57.2941 62.9882 57.2941 62.6118V61.2941V59.9843V59.4118C57.2941 59.4118 57.2941 59.2235 57.2941 58.8471V57.5294V56.2196V55.6471C57.2941 55.6471 57.2941 55.4588 57.2941 55.0824V53.7647V52.4549V51.8824C57.2941 51.8824 57.2941 51.6941 57.2941 51.3176V50V48.6902V48.1176C57.2941 48.1176 57.2941 47.9294 57.2941 47.5529V46.2353V44.9255V44.3529C57.2941 44.3529 57.2941 44.1647 57.2941 43.7882V42.4706V41.1608V40.5882H57.8588H59.1765H60.4863H61.0588C61.0588 40.5882 61.0588 40.7791 61.0588 41.1608V42.4706V43.7882V44.3529C61.0588 44.3529 60.868 44.3529 60.4863 44.3529H61.0588C61.0588 44.3529 61.0588 44.5438 61.0588 44.9255V46.2353V47.5529V48.1176C61.0588 48.1176 60.868 48.1176 60.4863 48.1176H61.0588C61.0588 48.1176 61.0588 48.3085 61.0588 48.6902V50V51.3176V51.8824C61.0588 51.8824 60.868 51.8824 60.4863 51.8824H61.0588C61.0588 51.8824 61.0588 52.0732 61.0588 52.4549V53.7647V55.0824V55.6471C61.0588 55.6471 60.868 55.6471 60.4863 55.6471H61.0588C61.0588 55.6471 61.0588 55.8379 61.0588 56.2196V57.5294V58.8471V59.4118C61.0588 59.4118 60.868 59.4118 60.4863 59.4118H61.0588C61.0588 59.4118 61.0588 59.6026 61.0588 59.9843V61.2941V62.6118V63.1765C61.0588 63.1765 60.868 63.1765 60.4863 63.1765H61.0588C61.0588 63.1765 61.0588 63.3673 61.0588 63.749V65.0588V66.3765V66.9412C61.0588 66.9412 60.868 66.9412 60.4863 66.9412H61.0588C61.0588 66.9412 61.0588 67.132 61.0588 67.5137V68.8235V70.1412V70.7059C61.0588 70.7059 60.868 70.7059 60.4863 70.7059H61.0588C61.0588 70.7059 61.0588 70.8967 61.0588 71.2784V72.5882V73.9059V74.4706C61.0588 74.4706 60.868 74.4706 60.4863 74.4706H61.0588C61.0588 74.4706 61.0588 74.6614 61.0588 75.0431V76.3529V77.6706V78.2353C61.0588 78.2353 60.868 78.2353 60.4863 78.2353H61.0588C61.0588 78.2353 61.0588 78.4261 61.0588 78.8078V78.2353H61.6235H62.9412H64.251H64.8235C64.8235 78.2353 64.8235 78.4261 64.8235 78.8078V78.2353H65.3882H66.7059H68.0157H68.5882C68.5882 78.2353 68.5882 78.4261 68.5882 78.8078V80.1176V81.4353V82C68.5882 82 68.3974 82 68.0157 82H66.7059H65.3882H64.8235C64.8235 82 64.8235 81.8118 64.8235 81.4353V82C64.8235 82 64.6327 82 64.251 82H62.9412H61.6235H61.0588C61.0588 82 61.0588 81.8118 61.0588 81.4353V82C61.0588 82 60.868 82 60.4863 82H59.1765H57.8588H57.2941C57.2941 82 57.2941 81.8118 57.2941 81.4353V82C57.2941 82 57.1033 82 56.7216 82H55.4118H54.0941H53.5294C53.5294 82 53.5294 81.8118 53.5294 81.4353V82C53.5294 82 53.3386 82 52.9569 82H51.6471H50.3294H49.7647ZM49.7647 48.1176C49.7647 48.1176 49.7647 47.9294 49.7647 47.5529V46.2353V44.9255V44.3529H50.3294H51.6471H52.9569H53.5294C53.5294 44.3529 53.5294 44.5438 53.5294 44.9255V46.2353V47.5529V48.1176C53.5294 48.1176 53.3386 48.1176 52.9569 48.1176H51.6471H50.3294H49.7647ZM53.5294 46.2353C53.5294 46.2353 53.5294 46.0471 53.5294 45.6706V44.3529V43.0431V42.4706H54.0941H55.4118H56.7216H57.2941C57.2941 42.4706 57.2941 42.6614 57.2941 43.0431V44.3529V45.6706V46.2353C57.2941 46.2353 57.1033 46.2353 56.7216 46.2353H55.4118H54.0941H53.5294Z" fill="black"/>
<defs>
<filter id="filter0_d_377_9" x="0" y="0" width="121" height="120" filterUnits="userSpaceOnUse" color-interpolation-filters="sRGB">
<feFlood flood-opacity="0" result="BackgroundImageFix"/>
<feColorMatrix in="SourceAlpha" type="matrix" values="0 0 0 0 0 0 0 0 0 0 0 0 0 0 0 0 0 0 127 0" result="hardAlpha"/>
<feOffset dx="4" dy="4"/>
<feComposite in2="hardAlpha" operator="out"/>
<feColorMatrix type="matrix" values="0 0 0 0 0 0 0 0 0 0 0 0 0 0 0 0 0 0 1 0"/>
<feBlend mode="normal" in2="BackgroundImageFix" result="effect1_dropShadow_377_9"/>
<feBlend mode="normal" in="SourceGraphic" in2="effect1_dropShadow_377_9" result="shape"/>
</filter>
</defs>
</svg>
